<svg xmlns="http://www.w3.org/2000/svg" width="509" height="185" fill="#1974D2"><path fill="none" stroke="gray" stroke-dasharray="1 3" stroke-dashoffset=".5" d="m.5.5v184h508v-184z"/><rect width="30" height="60" x="10" y="10" rx="3"/><rect width="160" height="30" x="50" y="10" rx="3"/><rect width="100" height="40" x="220" y="10" rx="3"/><rect width="150" height="20" x="330" y="10" rx="3"/><rect width="200" height="40" x="50" y="60" rx="3"/><rect width="190" height="30" x="260" y="60" rx="3"/><rect width="230" height="25" x="260" y="100" rx="3"/><rect width="200" height="40" x="10" y="135" rx="3"/><rect width="90" height="30" x="220" y="135" rx="3"/><text x="21 125 265 401 145 351 371 106 261" y="23 23 23 23 73 73 112 148 148" style="fill:#fff;font:13px PT Sans,sans-serif">123456789</text></svg>