<svg xmlns="http://www.w3.org/2000/svg" width="509" height="221" fill="#3EA746"><path fill="none" stroke="gray" stroke-dasharray="1 3" stroke-dashoffset=".5" d="m.5.5h508v220h-508z"/><rect width="30" height="60" x="10" y="10" rx="3"/><rect width="160" height="30" x="50" y="10" rx="3"/><rect width="100" height="40" x="220" y="10" rx="3"/><rect width="150" height="20" x="330" y="10" rx="3"/><rect width="200" height="40" x="10" y="80" rx="3"/><rect width="190" height="30" x="220" y="80" rx="3"/><rect width="230" height="25" x="10" y="130" rx="3"/><rect width="200" height="40" x="250" y="130" rx="3"/><rect width="90" height="30" x="10" y="180" rx="3"/><text x="21 125 265 401 106 312 117 347 52" y="23 23 23 23 92 92 142 142 192" style="fill:#fff;font:13px PT Sans,sans-serif">123456789</text></svg>